<?xml version="1.0"?>
<svg width="98" height="73" xmlns="http://www.w3.org/2000/svg" xmlns:svg="http://www.w3.org/2000/svg">
 <g class="layer">
  <title>Layer 1</title>
  <path d="m6.46,1.02c-3.02,0 -5.46,2.46 -5.46,5.44l0,50.19c0,3 2.74,5.75 5.76,5.75l7.86,0c0.92,5.44 5.64,9.59 11.34,9.59c5.7,0 10.42,-4.15 11.34,-9.59l17.76,0c3,0 5.46,-2.46 5.46,-5.44l0,-50.37c0,-3.09 -2.42,-5.59 -5.4,-5.59l-48.68,0l0,0.02l0.02,0zm57.9,13.43l0,47.96c0.92,5.42 5.82,9.59 11.52,9.59c5.7,0 10.42,-4.17 11.34,-9.59l4.02,0c3.02,0 5.76,-2.75 5.76,-5.75l0,-18.46c0,-3.88 -2.78,-7.81 -3.12,-8.28l-7.98,-10.67c-1.82,-2.2 -4.7,-4.81 -8.1,-4.81l-13.44,0zm9.6,9.59l10.74,0l6.12,8.15c0.66,0.93 2.34,3.75 2.34,6.01l0,1.18l-19.2,0c-1.92,0 -3.84,-1.91 -3.84,-3.84l0,-7.68c0,-2.13 1.92,-3.84 3.84,-3.84l0,0.02zm-48,28.78c4.24,0 7.68,3.44 7.68,7.68c0,4.24 -3.44,7.68 -7.68,7.68c-4.24,0 -7.68,-3.44 -7.68,-7.68c0,-4.24 3.44,-7.68 7.68,-7.68zm49.92,0c4.24,0 7.68,3.44 7.68,7.68c0,4.24 -3.44,7.68 -7.68,7.68c-4.24,0 -7.68,-3.44 -7.68,-7.68c0,-4.24 3.44,-7.68 7.68,-7.68z" id="svg_1"/>
  <rect height="0" id="svg_2" transform="matrix(1 0 0 1 0 0)" width="0" x="28" y="48.5"/>
 </g>
</svg>