<?xml version="1.0"?>
<svg width="98" height="73" xmlns="http://www.w3.org/2000/svg" xmlns:svg="http://www.w3.org/2000/svg" xmlns:xlink="http://www.w3.org/1999/xlink">
 <g class="layer">
  <title>Layer 1</title>
  <rect height="0" id="svg_2" transform="matrix(1 0 0 1 0 0)" width="0" x="28" y="48.5"/>
  <use id="svg_4" transform="matrix(0.118556 0 0 0.149747 0.981763 -23.4947)" x="8.43" xlink:href="#svg_3" y="0"/>
 </g>
 <defs>
  <symbol height="800px" id="svg_3" version="1.1" viewBox="0 0 612 612" width="800px" xml:space="preserve" xmlns="http://www.w3.org/2000/svg" xmlns:xlink="http://www.w3.org/1999/xlink">
   <g>
    <g>
     <path d="m612,338.19l0,55.62c0,13.88 -11.25,25.13 -25.13,25.13l-26.88,0c-4.86,-33.33 -33.59,-58.96 -68.26,-58.96c-34.59,0 -63.32,25.63 -68.17,58.96l-228.4,0c-4.85,-33.33 -33.58,-58.96 -68.17,-58.96s-63.32,25.63 -68.18,58.96l-33.67,0c-13.87,0 -25.12,-11.25 -25.12,-25.13l0,-55.62l611.98,0zm-438.93,-134.23l-14.32,0l-5.25,27.15l13.94,0c9.29,0 17,-6.36 17,-17c0,-6.48 -4.28,-10.15 -11.37,-10.15zm370.82,224.95c0,28.73 -23.36,52.09 -52.09,52.09c-28.81,0 -52.18,-23.37 -52.18,-52.09c0,-28.81 23.37,-52.18 52.18,-52.18c28.72,0 52.09,23.37 52.09,52.18zm-26.04,0c0,-14.41 -11.73,-26.05 -26.05,-26.05c-14.41,0 -26.05,11.64 -26.05,26.05c0,14.32 11.64,26.05 26.05,26.05c14.32,0 26.05,-11.73 26.05,-26.05zm-338.79,0c0,28.73 -23.28,52.09 -52.09,52.09s-52.09,-23.37 -52.09,-52.09c0,-28.81 23.28,-52.18 52.09,-52.18s52.09,23.37 52.09,52.18zm-26.04,0c0,-14.41 -11.64,-26.05 -26.05,-26.05c-14.41,0 -26.05,11.64 -26.05,26.05c0,14.32 11.65,26.05 26.05,26.05c14.41,0 26.05,-11.73 26.05,-26.05zm458.96,-104.61l-611.98,0l0,-168.17c0,-13.91 11.31,-25.13 25.13,-25.13l379.73,0c13.9,0 25.13,11.22 25.13,25.13l0,18.67l49.83,0c8.79,0 17.25,3.52 23.53,9.72l98.75,97.65c6.28,6.29 9.88,14.83 9.88,23.79l0,18.34zm-522.8,-95.76l4.65,-24.58l34.24,0l2.57,-13.58l-49.77,0l-16.89,86.84l15.66,0l6.85,-35.1l28.87,0l2.56,-13.57l-28.74,0l0,-0.01zm91.59,12.11l0,-0.25c13.09,-4.27 19.81,-17.12 19.81,-28.98c0,-8.93 -4.4,-15.66 -11.74,-18.84c-3.54,-1.59 -7.83,-2.2 -12.48,-2.2l-30.69,0l-16.88,86.84l15.77,0l6.24,-32.42l15.66,0l11.01,32.42l16.87,0l-11.61,-32.17c-1.11,-3.17 -1.96,-4.4 -1.96,-4.4zm96.34,-50.27l-51.85,0l-17,86.84l53.93,0l2.57,-13.58l-38.15,0l4.52,-23.36l29.23,0l2.69,-13.57l-29.23,0l4.4,-22.75l36.2,0l2.69,-13.58zm70.06,0l-51.85,0l-17,86.84l53.94,0l2.56,-13.58l-38.15,0l4.52,-23.36l29.23,0l2.69,-13.57l-29.23,0l4.4,-22.75l36.2,0l2.69,-13.58zm214.56,88.27l-77.3,-73.78c-0.76,-0.67 -1.76,-1.09 -2.77,-1.09l-18.17,0c-2.18,0 -3.94,1.76 -3.94,3.94l0,73.78c0,2.18 1.76,3.94 3.94,3.94l95.56,0c3.52,0 5.28,-4.36 2.68,-6.79z"/>
    </g>
   </g>
  </symbol>
 </defs>
</svg>