<?xml version="1.0"?>
<svg width="98" height="73" xmlns="http://www.w3.org/2000/svg" xmlns:svg="http://www.w3.org/2000/svg" xmlns:xlink="http://www.w3.org/1999/xlink">
 <g class="layer">
  <title>Layer 1</title>
  <rect height="0" id="svg_2" transform="matrix(1 0 0 1 0 0)" width="0" x="28" y="48.5"/>
  <use id="svg_5" transform="matrix(0.120002 0 0 0.131332 1.50953 -16.0226)" x="0" xlink:href="#svg_4" y="0"/>
 </g>
 <defs>
  <symbol height="800px" id="svg_4" version="1.1" viewBox="0 0 512 512" width="800px" xml:space="preserve" xmlns="http://www.w3.org/2000/svg" xmlns:xlink="http://www.w3.org/1999/xlink">
   <style type="text/css">
    <![CDATA[
	.st0{fill:#000000;}
]]>
   </style>
   <g>
    <path class="st0" d="m261.03,153.48l-5.37,0l0,7.49l5.37,0c1.25,0 2.27,-0.35 3,-1.03c0.77,-0.69 1.16,-1.6 1.16,-2.72c0,-1.11 -0.39,-2 -1.16,-2.7c-0.73,-0.69 -1.75,-1.04 -3,-1.04z"/>
    <path class="st0" d="m140.75,169.14c0.14,-0.39 0.28,-0.89 0.34,-1.45c0.1,-0.58 0.14,-1.27 0.18,-2.08c0.03,-0.8 0.03,-1.77 0.03,-2.89c0,-1.11 0,-2.06 -0.03,-2.88s-0.08,-1.5 -0.18,-2.07c-0.06,-0.58 -0.2,-1.05 -0.34,-1.46c-0.16,-0.4 -0.37,-0.75 -0.64,-1.08c-0.95,-1.17 -2.36,-1.75 -4.27,-1.75l-4.34,0l0,18.49l4.34,0c1.91,0 3.32,-0.59 4.27,-1.75c0.27,-0.33 0.48,-0.69 0.64,-1.08z"/>
    <path class="st0" d="m88.22,159.94c0.75,-0.69 1.14,-1.6 1.14,-2.72c0,-1.11 -0.39,-2 -1.14,-2.7c-0.75,-0.69 -1.75,-1.04 -3.02,-1.04l-5.37,0l0,7.49l5.37,0c1.27,0 2.27,-0.34 3.02,-1.03z"/>
    <polygon class="st0" points="229.875,167.219 237.141,167.219 233.563,156.906  "/>
    <path class="st0" d="m466.66,88l-421.32,0c-25.03,0 -45.34,20.31 -45.34,45.34l0,245.32c0,25.03 20.31,45.34 45.34,45.34l421.32,0c25.03,0 45.34,-20.31 45.34,-45.34l0,-245.32c0,-25.03 -20.31,-45.34 -45.34,-45.34zm-31,50.31c12.34,0 22.34,10 22.34,22.35s-10,22.34 -22.34,22.34s-22.35,-10 -22.35,-22.34s10,-22.35 22.35,-22.35zm-59.78,0c12.34,0 22.34,10 22.34,22.35s-10,22.34 -22.34,22.34s-22.35,-10 -22.35,-22.34s10,-22.35 22.35,-22.35zm-99.1,10.22l10.55,0c2,0 3.7,0.35 5.14,1c1.41,0.67 2.62,1.72 3.69,3.16c0.44,0.61 0.78,1.25 1.03,1.94c0.26,0.67 0.47,1.4 0.56,2.21s0.19,1.71 0.2,2.68c0.04,0.96 0.05,2.04 0.05,3.2c0,1.17 -0.01,2.25 -0.05,3.22c-0.01,0.97 -0.1,1.84 -0.2,2.65s-0.3,1.57 -0.56,2.24c-0.25,0.67 -0.6,1.33 -1.03,1.94c-1.07,1.42 -2.28,2.48 -3.69,3.14c-1.44,0.67 -3.14,1 -5.14,1l-10.55,0l0,-28.38zm-79.39,10.53c0.05,-1.09 0.16,-2.09 0.33,-3.01c0.19,-0.92 0.47,-1.77 0.86,-2.52c0.4,-0.78 0.97,-1.53 1.7,-2.25c1.02,-0.94 2.16,-1.69 3.41,-2.2c1.26,-0.52 2.75,-0.77 4.44,-0.77c2.73,0 5.06,0.75 7,2.25s3.15,3.72 3.7,6.71l-5.83,0c-0.28,-1.18 -0.81,-2.15 -1.59,-2.9s-1.88,-1.12 -3.28,-1.12c-0.79,0 -1.5,0.12 -2.11,0.39c-0.63,0.27 -1.13,0.63 -1.55,1.08c-0.28,0.28 -0.5,0.62 -0.67,1s-0.33,0.84 -0.44,1.44c-0.11,0.57 -0.2,1.31 -0.23,2.2c-0.07,0.89 -0.1,2.02 -0.1,3.36c0,1.36 0.03,2.48 0.1,3.37c0.03,0.89 0.12,1.63 0.23,2.22c0.11,0.57 0.27,1.07 0.44,1.42c0.17,0.38 0.39,0.71 0.67,1c0.42,0.46 0.92,0.8 1.55,1.08c0.61,0.25 1.32,0.39 2.11,0.39c1.4,0 2.53,-0.37 3.29,-1.14c0.8,-0.75 1.33,-1.72 1.63,-2.87l5.78,0c-0.55,2.97 -1.77,5.2 -3.7,6.7c-1.94,1.52 -4.27,2.27 -7,2.27c-1.69,0 -3.18,-0.28 -4.44,-0.78c-1.25,-0.54 -2.39,-1.27 -3.41,-2.22c-0.73,-0.72 -1.3,-1.47 -1.7,-2.22c-0.39,-0.78 -0.67,-1.63 -0.86,-2.53c-0.17,-0.93 -0.28,-1.94 -0.33,-3.02c-0.03,-1.09 -0.06,-2.31 -0.06,-3.67c0,-1.34 0.03,-2.56 0.06,-3.66zm-34.22,-10.53l20.97,0l0,4.95l-7.62,0l0,23.43l-5.71,0l0,-23.43l-7.64,0l0,-4.95zm-10.33,0l5.69,0l0,28.38l-5.69,0l0,-28.38zm-27.04,0l10.54,0c2,0 3.69,0.35 5.13,1c1.42,0.67 2.66,1.72 3.69,3.16c0.43,0.61 0.78,1.25 1.04,1.94c0.27,0.67 0.46,1.4 0.57,2.21s0.17,1.71 0.2,2.68s0.03,2.04 0.03,3.2c0,1.17 0,2.25 -0.03,3.22s-0.09,1.84 -0.2,2.65s-0.3,1.57 -0.57,2.24s-0.61,1.33 -1.04,1.94c-1.03,1.42 -2.27,2.48 -3.69,3.14c-1.44,0.67 -3.13,1 -5.13,1l-10.54,0l0,-28.38zm-24.83,0l19.22,0l0,4.95l-13.53,0l0,6.65l11.53,0l0,4.95l-11.53,0l0,6.89l13.53,0l0,4.94l-19.22,0l0,-28.38zm-26.84,0l11.45,0c1.48,0 2.8,0.25 3.97,0.7c1.17,0.47 2.17,1.1 3,1.88s1.45,1.7 1.86,2.75c0.43,1.05 0.65,2.17 0.65,3.36c0,1.01 -0.15,1.92 -0.44,2.72c-0.29,0.79 -0.68,1.5 -1.15,2.12c-0.5,0.63 -1.07,1.16 -1.72,1.6c-0.64,0.43 -1.31,0.78 -2.03,1.01l6.53,12.24l-6.63,0l-5.68,-11.32l-4.11,0l0,11.32l-5.71,0l0,-28.38l0.01,0zm-13.79,137.22l0,-21.87l33.25,0l0,21.87l-33.25,0zm33.25,7l0,23.63l-18.37,0c-8.22,0 -14.88,-6.66 -14.88,-14.88l0,-8.75l33.25,0zm-33.25,-35.87l0,-21.88l33.25,0l0,21.88l-33.25,0zm0,-28.88l0,-8.75c0,-8.22 6.66,-14.87 14.88,-14.87l18.37,0l0,23.62l-33.25,0zm-12.65,-65.28c0,-1.34 0.03,-2.56 0.06,-3.66c0.05,-1.09 0.16,-2.09 0.35,-3.01c0.17,-0.92 0.46,-1.77 0.84,-2.52c0.41,-0.78 0.97,-1.53 1.72,-2.25c1,-0.94 2.12,-1.69 3.4,-2.2c1.25,-0.52 2.74,-0.77 4.43,-0.77c2.73,0 5.07,0.75 7.01,2.25c1.92,1.5 3.14,3.72 3.69,6.71l-5.81,0c-0.3,-1.18 -0.83,-2.15 -1.6,-2.9c-0.78,-0.75 -1.87,-1.12 -3.29,-1.12c-0.8,0 -1.49,0.12 -2.11,0.39s-1.13,0.63 -1.53,1.08c-0.28,0.28 -0.5,0.62 -0.69,1c-0.17,0.37 -0.31,0.84 -0.44,1.44c-0.11,0.57 -0.19,1.31 -0.23,2.2s-0.08,2.02 -0.08,3.36c0,1.36 0.03,2.48 0.08,3.37s0.12,1.63 0.23,2.22c0.13,0.57 0.27,1.07 0.44,1.42c0.19,0.38 0.4,0.71 0.69,1c0.4,0.46 0.9,0.8 1.53,1.08c0.62,0.25 1.31,0.39 2.11,0.39c1.42,0 2.53,-0.37 3.29,-1.14c0.8,-0.75 1.33,-1.72 1.63,-2.87l5.78,0c-0.55,2.97 -1.77,5.2 -3.69,6.7c-1.94,1.52 -4.28,2.27 -7.01,2.27c-1.69,0 -3.18,-0.28 -4.43,-0.78c-1.28,-0.54 -2.4,-1.27 -3.4,-2.22c-0.75,-0.72 -1.32,-1.47 -1.72,-2.22c-0.38,-0.78 -0.67,-1.63 -0.85,-2.53c-0.18,-0.93 -0.29,-1.94 -0.34,-3.02c-0.03,-1.09 -0.06,-2.31 -0.06,-3.67zm80.31,207.94l-80,0l0,-16l80,0l0,16zm4.09,-142.66l0,7l0,9.03l0,0.6l0,12.25l0,7l0,9.62l0,5.53l0,6.72l0,7l0,13.41l0,10.22l-31.5,0l0,-10.22l0,-13.41l0,-7l0,-6.72l0,-5.53l0,-9.62l0,-7l0,-12.25l0,-0.6l0,-9.03l0,-7l0,-7.59l0,-16.03l18.38,0l13.12,0l5.25,0l16.63,0l3.48,0c8.22,0 14.89,6.65 14.89,14.87l0,8.75l-18.37,0l-16.63,0l-5.25,0zm7,28.88l0,-21.88l33.25,0l0,21.88l-33.25,0zm33.25,7l0,21.87l-33.25,0l0,-21.87l33.25,0zm-33.25,52.5l0,-23.63l33.25,0l0,8.75c0,8.22 -6.67,14.88 -14.89,14.88l-18.36,0zm100.91,54.28l-80,0l0,-16l80,0l0,16zm0.38,-193.75l-1.72,-5.02l-10.38,0l-1.78,5.02l-5.94,0l10.63,-28.38l4.47,0l10.68,28.38l-5.96,0zm19.37,-11.32l-4.09,0l0,11.32l-5.71,0l0,-28.38l11.46,0c1.47,0 2.79,0.25 3.97,0.7c1.17,0.47 2.17,1.1 3,1.88c0.81,0.78 1.43,1.7 1.85,2.75c0.44,1.05 0.65,2.17 0.65,3.36c0,1.01 -0.15,1.92 -0.44,2.72c-0.28,0.79 -0.68,1.5 -1.16,2.12c-0.5,0.63 -1.06,1.16 -1.7,1.6s-1.33,0.78 -2.05,1.01l6.53,12.24l-6.61,0l-5.7,-11.32zm92.25,205.07l-80,0l0,-16l80,0l0,16zm112,0l-80,0l0,-16l80,0l0,16zm0,-48l-160,0l0,-16l160,0l0,16z"/>
    <path class="st0" d="m291.75,169.14c0.13,-0.39 0.27,-0.89 0.34,-1.45c0.08,-0.58 0.13,-1.27 0.16,-2.08c0.03,-0.8 0.03,-1.77 0.03,-2.89c0,-1.11 0,-2.06 -0.03,-2.88s-0.08,-1.5 -0.16,-2.07s-0.21,-1.05 -0.34,-1.46c-0.16,-0.4 -0.37,-0.75 -0.66,-1.08c-0.93,-1.17 -2.37,-1.75 -4.26,-1.75l-4.35,0l0,18.49l4.35,0c1.89,0 3.33,-0.59 4.26,-1.75c0.29,-0.33 0.5,-0.69 0.66,-1.08z"/>
   </g>
  </symbol>
 </defs>
</svg>